<svg xmlns="http://www.w3.org/2000/svg" width="17.5" height="20" viewBox="0 0 17.5 20">
  <path id="Icon_metro-android" data-name="Icon metro-android" d="M20.749,9.428a1.254,1.254,0,0,0-1.25,1.25v5a1.25,1.25,0,1,0,2.5,0v-5A1.254,1.254,0,0,0,20.749,9.428Zm-15,0a1.254,1.254,0,0,0-1.25,1.25v5a1.25,1.25,0,1,0,2.5,0v-5a1.254,1.254,0,0,0-1.25-1.25ZM7.624,16.3A1.875,1.875,0,0,0,9.5,18.178v2.5a1.25,1.25,0,0,0,2.5,0v-2.5h2.5v2.5a1.25,1.25,0,0,0,2.5,0v-2.5A1.875,1.875,0,0,0,18.874,16.3V9.428H7.624V16.3ZM18.839,8.178a5.622,5.622,0,0,0-2.532-4.095l.625-1.251a.625.625,0,1,0-1.118-.559l-.628,1.256-.163-.065a5.646,5.646,0,0,0-3.55,0l-.163.065-.628-1.255a.625.625,0,0,0-1.118.559l.625,1.251A5.622,5.622,0,0,0,7.658,8.178V8.8H18.874V8.178h-.035Zm-7.465-1.25a.625.625,0,0,1,0-1.25h0a.625.625,0,0,1,0,1.25Zm3.75,0a.625.625,0,0,1,0-1.25h0a.625.625,0,0,1,0,1.25Z" transform="translate(-4.499 -1.928)" fill="#a4c639"/>
</svg>
