<svg xmlns="http://www.w3.org/2000/svg" width="22.479" height="20" viewBox="0 0 22.479 20">
  <path id="Icon_simple-react" data-name="Icon simple-react" d="M11.239,9.982a2,2,0,1,0,2,2A2,2,0,0,0,11.239,9.982ZM5.627,15.97l-.442-.112C1.89,15.025,0,13.612,0,11.981S1.89,8.937,5.185,8.1l.442-.111.125.438a22.038,22.038,0,0,0,1.277,3.351l.095.2-.095.2a21.829,21.829,0,0,0-1.277,3.351ZM4.98,9.128c-2.5.7-4.041,1.78-4.041,2.853S2.475,14.13,4.98,14.834a23.369,23.369,0,0,1,1.107-2.853A23.183,23.183,0,0,1,4.98,9.128ZM16.852,15.97l-.125-.439a21.876,21.876,0,0,0-1.278-3.35l-.095-.2.095-.2a21.935,21.935,0,0,0,1.278-3.351l.125-.438.443.111c3.294.833,5.184,2.246,5.184,3.878s-1.89,3.044-5.184,3.877Zm-.46-3.989A23.159,23.159,0,0,1,17.5,14.834c2.505-.7,4.041-1.781,4.041-2.853S20,9.833,17.5,9.128A23.217,23.217,0,0,1,16.392,11.981ZM4.973,9.124l-.125-.437c-.926-3.265-.645-5.6.771-6.421,1.389-.8,3.619.145,5.956,2.544l.318.327-.318.327A22.059,22.059,0,0,0,9.307,8.241l-.126.181-.22.019a22.158,22.158,0,0,0-3.545.571Zm1.776-6.21a1.307,1.307,0,0,0-.66.162c-.931.537-1.1,2.4-.454,4.92a23.529,23.529,0,0,1,3.028-.469,23.271,23.271,0,0,1,1.922-2.383C9.124,3.721,7.74,2.914,6.749,2.914ZM15.73,21.985h0c-1.335,0-3.049-1-4.827-2.831l-.318-.327L10.9,18.5a22.038,22.038,0,0,0,2.268-2.78l.126-.181.219-.019a22.132,22.132,0,0,0,3.547-.57l.442-.111.126.438c.924,3.263.644,5.6-.772,6.42a2.229,2.229,0,0,1-1.129.288Zm-3.836-3.167c1.461,1.423,2.844,2.23,3.835,2.23h0a1.3,1.3,0,0,0,.659-.162c.931-.537,1.1-2.4.454-4.921a23.433,23.433,0,0,1-3.029.469,23.11,23.11,0,0,1-1.921,2.384Zm5.611-9.695-.442-.111a21.99,21.99,0,0,0-3.547-.571L13.3,8.422l-.126-.181A21.93,21.93,0,0,0,10.9,5.463l-.318-.327.318-.327c2.336-2.4,4.565-3.345,5.956-2.544,1.416.817,1.7,3.156.772,6.42Zm-3.69-1.6A23.358,23.358,0,0,1,16.844,8c.643-2.518.477-4.383-.454-4.92s-2.665.285-4.5,2.068a23.274,23.274,0,0,1,1.921,2.383ZM6.749,21.985A2.229,2.229,0,0,1,5.62,21.7c-1.416-.816-1.7-3.155-.771-6.42l.124-.438.442.111a22.107,22.107,0,0,0,3.545.57l.22.019.126.181a22.1,22.1,0,0,0,2.268,2.78l.318.327-.318.327C9.8,20.98,8.082,21.985,6.749,21.985Zm-1.115-6.02c-.643,2.518-.477,4.384.454,4.921s2.663-.286,4.5-2.068a23.413,23.413,0,0,1-1.922-2.384,23.393,23.393,0,0,1-3.028-.469Zm5.6.588c-.771,0-1.563-.034-2.357-.1l-.22-.019-.126-.181q-.673-.967-1.264-1.987T6.18,12.181l-.094-.2.094-.2q.5-1.066,1.092-2.087c.388-.671.814-1.339,1.264-1.987l.126-.181.22-.019a27.9,27.9,0,0,1,4.714,0l.219.019.126.181A28.1,28.1,0,0,1,16.3,11.782l.095.2-.095.2a27.724,27.724,0,0,1-2.357,4.074l-.126.181-.219.019C12.8,16.52,12.01,16.554,11.239,16.554ZM9.182,15.539a27.2,27.2,0,0,0,4.116,0,27.167,27.167,0,0,0,2.057-3.557A26.773,26.773,0,0,0,13.3,8.424a27.191,27.191,0,0,0-4.115,0,26.672,26.672,0,0,0-2.058,3.557,27.269,27.269,0,0,0,2.058,3.557Z" transform="translate(0 -1.986)" fill="#087ea4"/>
</svg>
