<svg xmlns="http://www.w3.org/2000/svg" width="56" height="56" viewBox="0 0 56 56">
  <g id="Icon_feather-share-2" data-name="Icon feather-share-2" transform="translate(11.6 18)">
    <rect id="Rectangle_9" data-name="Rectangle 9" width="56" height="56" transform="translate(-11.6 -18)" fill="#fff"/>
    <path id="Path_8" data-name="Path 8" d="M26.1,4.8A1.8,1.8,0,1,1,24.3,3,1.8,1.8,0,0,1,26.1,4.8Z" transform="translate(-3.8 1)" fill="none" stroke="#000" stroke-linecap="round" stroke-linejoin="round" stroke-width="1"/>
    <path id="Path_9" data-name="Path 9" d="M8.1,15.3a1.8,1.8,0,1,1-1.8-1.8A1.8,1.8,0,0,1,8.1,15.3Z" transform="translate(7 -5.3)" fill="none" stroke="#000" stroke-linecap="round" stroke-linejoin="round" stroke-width="1"/>
    <path id="Path_10" data-name="Path 10" d="M26.1,25.8A1.8,1.8,0,1,1,24.3,24,1.8,1.8,0,0,1,26.1,25.8Z" transform="translate(-3.8 -11.6)" fill="none" stroke="#000" stroke-linecap="round" stroke-linejoin="round" stroke-width="1"/>
    <path id="Path_11" data-name="Path 11" d="M12.885,20.265l4.1,2.388" transform="translate(1.969 -9.359)" fill="none" stroke="#000" stroke-linecap="round" stroke-linejoin="round" stroke-width="1"/>
    <path id="Path_12" data-name="Path 12" d="M16.977,9.765l-4.092,2.388" transform="translate(1.969 -3.059)" fill="none" stroke="#000" stroke-linecap="round" stroke-linejoin="round" stroke-width="1"/>
  </g>
</svg>
