<?xml version="1.0" encoding="UTF-8"?>
<svg xmlns="http://www.w3.org/2000/svg" xmlns:xlink="http://www.w3.org/1999/xlink" width="69px" height="29px" viewBox="0 0 69 29" version="1.1">
<g id="surface1">
<path style=" stroke:none;fill-rule:evenodd;fill:rgb(20.392157%,59.607846%,85.882354%);fill-opacity:1;" d="M 28.773438 18.175781 L 27.300781 15.347656 L 25.796875 18.175781 L 24.179688 18.175781 L 26.472656 14.527344 L 24.410156 10.898438 L 26.050781 10.898438 L 27.390625 13.652344 L 28.839844 10.898438 L 30.339844 10.898438 L 28.21875 14.503906 L 30.375 18.175781 Z M 34.015625 18.175781 L 34.015625 17.382812 L 33.996094 17.382812 C 33.597656 18.003906 33.03125 18.316406 32.300781 18.316406 C 31.734375 18.316406 31.292969 18.160156 30.96875 17.855469 C 30.640625 17.542969 30.480469 17.128906 30.480469 16.609375 C 30.480469 15.492188 31.105469 14.855469 32.355469 14.703125 L 34.027344 14.472656 C 34.027344 13.691406 33.667969 13.300781 32.941406 13.300781 C 32.253906 13.300781 31.617188 13.511719 31.039062 13.941406 L 31.039062 12.792969 C 31.257812 12.664062 31.566406 12.546875 31.96875 12.441406 C 32.375 12.335938 32.746094 12.28125 33.078125 12.28125 C 34.554688 12.28125 35.292969 13.03125 35.292969 14.53125 L 35.292969 18.175781 Z M 32.792969 15.539062 C 32.40625 15.589844 32.136719 15.683594 31.980469 15.828125 C 31.828125 15.964844 31.75 16.179688 31.75 16.472656 C 31.75 16.710938 31.839844 16.910156 32.015625 17.0625 C 32.1875 17.210938 32.417969 17.289062 32.703125 17.289062 C 33.085938 17.289062 33.402344 17.15625 33.652344 16.890625 C 33.902344 16.621094 34.027344 16.292969 34.027344 15.894531 L 34.027344 15.378906 Z M 43.546875 18.175781 L 43.546875 14.929688 C 43.546875 14.394531 43.460938 13.996094 43.292969 13.738281 C 43.128906 13.476562 42.835938 13.34375 42.410156 13.34375 C 42.070312 13.34375 41.785156 13.5 41.554688 13.816406 C 41.320312 14.128906 41.207031 14.503906 41.207031 14.945312 L 41.207031 18.175781 L 39.914062 18.175781 L 39.914062 14.816406 C 39.914062 13.835938 39.539062 13.34375 38.789062 13.34375 C 38.4375 13.34375 38.148438 13.492188 37.921875 13.789062 C 37.695312 14.085938 37.585938 14.46875 37.585938 14.945312 L 37.585938 18.175781 L 36.292969 18.175781 L 36.292969 12.421875 L 37.585938 12.421875 L 37.585938 13.3125 L 37.605469 13.3125 C 38.023438 12.625 38.625 12.28125 39.421875 12.28125 C 39.800781 12.28125 40.136719 12.382812 40.429688 12.585938 C 40.722656 12.785156 40.929688 13.058594 41.050781 13.410156 C 41.484375 12.660156 42.128906 12.28125 42.976562 12.28125 C 44.222656 12.28125 44.84375 13.0625 44.84375 14.621094 L 44.84375 18.175781 Z M 49.144531 18.175781 L 49.144531 17.382812 L 49.121094 17.382812 C 48.722656 18.003906 48.15625 18.316406 47.425781 18.316406 C 46.859375 18.316406 46.417969 18.160156 46.09375 17.855469 C 45.769531 17.542969 45.605469 17.128906 45.605469 16.609375 C 45.605469 15.492188 46.230469 14.855469 47.480469 14.703125 L 49.152344 14.472656 C 49.152344 13.691406 48.792969 13.300781 48.066406 13.300781 C 47.378906 13.300781 46.742188 13.511719 46.164062 13.941406 L 46.164062 12.792969 C 46.382812 12.664062 46.691406 12.546875 47.09375 12.441406 C 47.5 12.335938 47.871094 12.28125 48.203125 12.28125 C 49.679688 12.28125 50.417969 13.03125 50.417969 14.53125 L 50.417969 18.175781 Z M 47.917969 15.539062 C 47.53125 15.589844 47.261719 15.683594 47.105469 15.828125 C 46.953125 15.964844 46.875 16.179688 46.875 16.472656 C 46.875 16.710938 46.964844 16.910156 47.140625 17.0625 C 47.3125 17.210938 47.542969 17.289062 47.828125 17.289062 C 48.210938 17.289062 48.527344 17.15625 48.777344 16.890625 C 49.027344 16.621094 49.152344 16.292969 49.152344 15.894531 L 49.152344 15.378906 Z M 54.75 13.6875 C 54.535156 13.554688 54.285156 13.492188 54 13.492188 C 53.625 13.492188 53.324219 13.652344 53.085938 13.972656 C 52.855469 14.296875 52.742188 14.714844 52.742188 15.230469 L 52.742188 18.175781 L 51.449219 18.175781 L 51.449219 12.421875 L 52.742188 12.421875 L 52.742188 13.542969 L 52.761719 13.542969 C 53.039062 12.730469 53.527344 12.324219 54.230469 12.324219 C 54.457031 12.324219 54.628906 12.347656 54.75 12.402344 Z M 56.035156 11.136719 C 55.816406 11.136719 55.628906 11.066406 55.476562 10.921875 C 55.324219 10.777344 55.246094 10.601562 55.246094 10.390625 C 55.246094 10.171875 55.324219 9.992188 55.476562 9.84375 C 55.628906 9.699219 55.816406 9.625 56.035156 9.625 C 56.261719 9.625 56.449219 9.699219 56.601562 9.851562 C 56.753906 9.996094 56.832031 10.175781 56.832031 10.390625 C 56.832031 10.601562 56.753906 10.777344 56.601562 10.921875 C 56.449219 11.066406 56.261719 11.136719 56.035156 11.136719 Z M 55.375 18.175781 L 55.375 12.421875 L 56.667969 12.421875 L 56.667969 18.175781 Z M 61.554688 18.175781 L 61.554688 14.945312 C 61.554688 13.878906 61.171875 13.34375 60.410156 13.34375 C 60.023438 13.34375 59.703125 13.492188 59.441406 13.789062 C 59.183594 14.082031 59.054688 14.453125 59.054688 14.90625 L 59.054688 18.175781 L 57.761719 18.175781 L 57.761719 12.421875 L 59.054688 12.421875 L 59.054688 13.34375 L 59.078125 13.34375 C 59.496094 12.636719 60.113281 12.28125 60.933594 12.28125 C 62.210938 12.28125 62.847656 13.070312 62.847656 14.640625 L 62.847656 18.175781 Z M 10.183594 8 C 9.789062 8 9.40625 8.226562 9.207031 8.566406 L 6.132812 13.933594 C 5.9375 14.277344 5.9375 14.722656 6.132812 15.066406 L 9.207031 20.433594 C 9.40625 20.773438 9.789062 21 10.183594 21 L 16.332031 21 C 16.726562 21 17.109375 20.773438 17.308594 20.433594 L 20.382812 15.066406 C 20.578125 14.722656 20.578125 14.277344 20.382812 13.933594 L 17.308594 8.566406 C 17.109375 8.226562 16.726562 8 16.332031 8 Z M 10.238281 11.140625 C 10.246094 11.140625 10.257812 11.140625 10.265625 11.140625 L 11.324219 11.140625 C 11.371094 11.140625 11.417969 11.167969 11.441406 11.207031 L 13.242188 14.429688 C 13.25 14.445312 13.257812 14.464844 13.257812 14.484375 C 13.261719 14.464844 13.265625 14.445312 13.273438 14.429688 L 15.070312 11.207031 C 15.09375 11.167969 15.140625 11.140625 15.191406 11.140625 L 16.25 11.140625 C 16.34375 11.140625 16.414062 11.257812 16.371094 11.34375 L 14.613281 14.5 L 16.371094 17.652344 C 16.417969 17.738281 16.347656 17.859375 16.25 17.859375 L 15.191406 17.859375 C 15.140625 17.859375 15.09375 17.832031 15.070312 17.785156 L 13.273438 14.566406 C 13.265625 14.550781 13.261719 14.53125 13.257812 14.511719 C 13.257812 14.53125 13.25 14.550781 13.242188 14.566406 L 11.441406 17.785156 C 11.417969 17.828125 11.375 17.859375 11.324219 17.859375 L 10.265625 17.859375 C 10.167969 17.859375 10.097656 17.738281 10.144531 17.652344 L 11.902344 14.5 L 10.144531 11.34375 C 10.101562 11.265625 10.152344 11.15625 10.238281 11.140625 Z M 10.238281 11.140625 "/>
</g>
</svg>
